<?xml version="1.0" encoding="UTF-8"?>
<svg id="a" data-name="Layer 1" xmlns="http://www.w3.org/2000/svg" viewBox="0 0 473.18 414.87 ">
  <path d="m409.76,309.5c-7.9-25.75-29.68-56.71-33.3-61.73-18.08-25.06-65.62-75.82-97.86-97.32-9.57-6.38-32.34-15.49-42.46-15.39s-28.6,6.74-39.14,12.46c-16.21,8.79-51.73,31.2-62,41.41-30.88,27.24-52.42,63.28-66.76,97.73-.42,1.02-11.02,33.18-13.86,47.57-2.48,12.55-2.55,39.04,6.85,48.44,9.63,7.35,31.51,10.66,38.37,8.97,2.48-3.71-2.45-25.58,10.06-49.1h0c6.63-13.63,24.84-26.41,35.41-36.63,9.48-6.51,9.05-20.46,17.55-20.59,3.48-.05,20.62,9.1,23.79,11.11,9.86,6.39,17.75,21.49,17.65,27.17-1.31,6.61,2.1,22.41-17.68,63.13-4.02,8.27-.19,12.22,3.53,14.28,4.28,2.36,14.58,6.94,14.82,6.15,5.63-1.51,10.48-9.61,13.06-14.37,1.4-1.39,8.46-17.74,7.68-26.57,1.58-18.38-4.81-32.53-8.28-49.16-2.75-12.44-2.81-14.36-4.12-24.22-.46-3.46-3.81-31.83,3.42-37.75,4.61-5.28,11.39-8.22,12.35-16.61,1.05-9.17,28.1-3.69,29.88-3.41,2.85.92,10.27,2.02,13.32,3.21,6.16,1.59,14.08,4.74,20.69,7.9,4.35,2.07,8.03,5.43,8.8,8.1,3.08,18.76,25.5,33.45,38.37,49.89,15.79,20.18,27.14,36.09,32.47,56.7,2.43,9.4,3.91,22.74,8.32,30.78,1.91.82,23.52-5.57,22.83-5.39,14.15-3.56,10.9-61.59,6.25-76.73Zm-281.3,11.12s.02-.01.02-.02c0,0-.01.01-.02.02Zm95.25,24.21s0,.03,0,.04c0-.01,0-.03,0-.04Zm54.21-167.61s0,.04,0,.06c0-.02,0-.04,0-.06Zm-13.27-32.62h.06s-.02,0-.06,0Zm-42.84,24.75s0,0,0,0q.31-.25,0,0Zm-16.45,14.93c-.23.15-.46.29-.69.44.23-.15.46-.29.69-.44Zm-8.08-36.72l-.09-.02s.09.02.09.02Zm-2.7,43.69s0,0,0,0q-.22.35,0,0Zm8.44,112.32c-.08,10.8-10.4-19.23-40.17-24.34-4.09-.7-12.1,1.09-20.12,2.36-5.88.93-7.63-4.28-9.41-8.46-2.7-6.34-1.42-16.81,0-20.94,1.59-5.73,4.8-9.82,9.36-13.65.2-.2.4-.4.59-.59,7.37-3.28,2.97-20.09,12.16-16.55,17.35,8.76,31.31,24.6,37.44,40.52,3.31,9.59,10.72,26.9,10.15,41.65Zm87.9-63.18c-7.53-4.12-16.14-9-24.75-11.34-6.09-1.74-12.42-3.21-18.88-3.57-26.35.13-14.49-12.86-37.79-8.27-6.58-1.36-13.34-16.23-14.21-17.39-5.03-12.08,4.06-11.95,16.73-18.58,4.2-2.2,4.88-6.75,7.99-10.06,5.92-5.15,27.26-9.73,30.82-9.51,2.22.14,4.57.59,7.3,1.32,7.59,2.03,11.32,3.11,18.04,10.63.33.81,2.98,8.05,1.68,13.45.38,6.79-9.58,14.36-16.14,16.98-13.63,3.94-13.41.28-13.86.16-.54-3.35-.27-8.03.54-11.12.59-2.25,1.21-2.75,2.45-6.4.93-2.74-5.03.17-6.95,5.6-.39,1.11-.49,1.41-.98,2.8-1.26,3.63-3.29,18.88,9.68,17.59,3.87-.39,14.91-4.07,14.7-4.24,2.69-.72,8.27-4.47,9.11-5.26,2.51-2.35,8.73-13.84,9.9-6.02,2.8,6.66,4.09,11.93,6.98,18.71.42,2.31,3.7,11.34,5.3,17.42.13,1.14,4.04,11.27.07,11.13-.49-.02-5.3-2.6-7.74-4.01Zm-34.25-28.5s0,0,0,0t0,0Zm134.08,179.54s.06-.04.08-.06c-.03.02-.06.04-.08.06Z"/>
  <path d="m330.03,335.35c-8.6-5.78-22.54-11.17-34.26-10.39-22.24,1.49-37.83,21.12-43.26,37.88-2.31,7.14-8.6,32.37-9.45,36.63-4.34,21.77,6.8,15.63,18.09,10.4,2.2-.52,18.29-7.42,22.37-8.92,4.44-1.64,25.23.16,17.5-4.44-2.01-.64-7-2.8-8.84-3.27-23.27-6-35.54-38.3-15.42-54.29,17.97-14.28,34.38-6.39,43.75-3.61,2.13.63,10,3.51,9.53,0Zm-42.04-2.29s0,0,.01,0c0,0,0,0-.01,0Z"/>
  <path d="m181.11,357.39c-1.6-14.03-15.45-26.39-22.37-26.81-10.03-.61-16.06,1.36-22.58,3.66-9.66,3.41-21.11,19-7.91,10.64,26.84-17,50.54-6.33,42.84,37.56-1.02,5.82-14.92,17.56-10.64,19.62,34.17-6.01,9.68-1.39,16.5-16.09.17-.37,5.3-18.56,4.16-28.58Z"/>
  <ellipse cx="307.41" cy="74.61" rx="70.7" ry="57.38" transform="translate(128.72 335.65) rotate(-69.25)"/>
  <ellipse cx="164.17" cy="70.75" rx="56.59" ry="72.19" transform="translate(-14.03 56.52) rotate(-18.75)"/>
  <ellipse cx="56.63" cy="156.51" rx="54.12" ry="65.36" transform="translate(-64.94 42.83) rotate(-27.03)"/>
  <ellipse cx="413.29" cy="157.89" rx="65.36" ry="55.48" transform="translate(23.95 368.02) rotate(-49.26)"/>
</svg>